<?xml version="1.0" standalone="no"?>
<!DOCTYPE svg PUBLIC "-//W3C//DTD SVG 20010904//EN"
 "http://www.w3.org/TR/2001/REC-SVG-20010904/DTD/svg10.dtd">
<svg version="1.0" xmlns="http://www.w3.org/2000/svg"
 width="500.000000pt" height="120.000000pt" viewBox="0 0 500.000000 120.000000"
 preserveAspectRatio="xMidYMid meet">

<g transform="translate(0.000000,120.000000) scale(0.100000,-0.100000)"
fill="#000000" stroke="none">
<path d="M1200 1010 c-11 -8 -8 -9 13 -4 34 8 36 -3 2 -16 -48 -18 -78 -23
-72 -13 4 6 0 14 -9 17 -26 10 -34 7 -34 -11 0 -24 91 -295 97 -289 2 2 -16
64 -41 137 -47 136 -53 159 -37 159 8 0 131 -351 131 -374 0 -4 -6 -6 -13 -3
-21 8 -38 -28 -28 -57 8 -19 6 -28 -10 -42 -19 -17 -19 -16 -19 48 0 58 -4 72
-32 114 -44 64 -77 86 -136 92 -40 3 -52 9 -60 28 -16 35 -68 57 -116 51 -31
-4 -49 -14 -72 -41 -23 -27 -39 -36 -63 -36 -46 0 -93 -23 -124 -60 -47 -55
-59 -96 -55 -186 3 -75 1 -82 -24 -113 -16 -18 -28 -37 -28 -42 0 -12 50 -59
63 -59 5 0 7 -12 4 -27 -5 -26 -4 -26 9 -8 19 25 18 32 -4 39 -11 4 -29 18
-42 31 l-24 25 20 27 c11 15 26 29 32 31 16 5 15 -31 0 -46 -10 -10 -5 -20 25
-47 40 -37 43 -45 26 -76 -7 -14 -16 -18 -27 -14 -14 5 -15 4 -4 -7 11 -11 17
-9 32 10 l19 23 30 -44 c38 -56 96 -107 122 -107 11 0 37 19 59 42 l39 43 45
-44 c37 -36 49 -42 70 -37 53 13 132 120 183 248 18 43 39 75 68 100 42 37 61
73 44 84 -11 7 -12 54 -1 54 5 0 -6 44 -25 97 -18 53 -31 103 -29 110 3 7 0
13 -6 13 -20 0 4 16 41 29 27 9 36 8 43 -1 5 -9 8 -8 8 5 0 21 -6 21 -60 2
-50 -18 -50 -18 -50 -5 0 6 8 10 18 11 11 1 9 4 -8 9 -14 4 -19 8 -12 9 10 1
10 5 -2 17 -22 22 -20 28 12 41 27 11 27 11 -5 6 -47 -8 -41 3 12 20 25 9 45
12 45 7 0 -4 -6 -11 -12 -13 -8 -3 -5 -6 5 -6 10 -1 16 -5 13 -10 -4 -5 0 -11
6 -14 7 -2 -3 -12 -22 -21 -31 -14 -11 -13 28 1 25 10 11 -14 -15 -24 l-28
-12 30 6 c17 3 32 7 34 9 2 1 -5 24 -15 51 -11 26 -19 52 -19 58 0 14 -27 17
-45 5z m-276 -211 c57 -67 15 -169 -69 -169 -29 0 -45 8 -72 35 -32 32 -35 39
-30 78 8 57 43 87 102 87 36 0 47 -5 69 -31z m-189 -66 c1 -19 -5 -22 -54 -28
-31 -3 -67 -9 -81 -12 l-25 -6 20 23 c44 50 137 66 140 23z m318 14 c18 -8 39
-22 47 -32 14 -17 11 -17 -50 -10 -76 9 -80 10 -80 36 0 23 35 26 83 6z m47
-126 l65 -16 3 -48 c5 -70 -14 -144 -57 -234 -48 -98 -92 -158 -130 -178 -37
-18 -53 -13 -86 31 -14 19 -33 34 -41 34 -8 0 -32 -18 -54 -40 -22 -22 -42
-40 -45 -40 -22 0 -68 37 -99 78 -76 104 -126 242 -126 347 0 39 3 44 30 54
17 5 66 15 110 22 72 11 85 11 135 -7 56 -18 56 -18 93 3 42 24 88 22 202 -6z
m138 -50 c-1 -15 2 -33 6 -39 8 -13 -49 -80 -59 -70 -4 4 4 21 18 38 22 25 25
35 17 56 -10 26 -6 44 10 44 5 0 8 -13 8 -29z m-678 -218 c0 -13 -3 -13 -15
-3 -8 7 -12 16 -9 21 8 13 24 1 24 -18z"/>
<path d="M803 764 c-15 -24 -15 -29 -2 -53 28 -49 109 -32 109 24 0 54 -77 75
-107 29z"/>
<path d="M755 560 c-8 -14 3 -30 21 -30 8 0 14 9 14 20 0 21 -24 28 -35 10z"/>
<path d="M917 564 c-14 -14 -7 -35 11 -32 9 2 17 10 17 17 0 16 -18 25 -28 15z"/>
<path d="M770 481 c0 -18 44 -41 81 -41 34 0 97 35 85 47 -3 3 -12 -2 -21 -11
-33 -33 -97 -33 -129 0 -9 8 -16 11 -16 5z"/>
<path d="M1647 954 c-4 -4 -7 -16 -7 -26 0 -14 -8 -18 -40 -18 -30 0 -40 4
-40 16 0 9 -7 14 -17 12 -13 -2 -18 -13 -18 -33 l0 -30 124 -3 c131 -3 154 4
149 42 -4 25 -38 35 -38 12 0 -12 -10 -16 -39 -16 -33 0 -40 4 -43 22 -3 22
-19 33 -31 22z"/>
<path d="M1987 953 c-4 -3 -7 -14 -7 -24 0 -15 -10 -19 -62 -21 -48 -2 -63 -7
-63 -18 0 -11 15 -16 53 -20 l54 -5 -30 -40 c-16 -22 -41 -51 -56 -64 -27 -25
-35 -61 -14 -61 6 0 20 7 30 17 17 15 18 15 18 0 0 -13 9 -17 34 -17 28 0 35
-4 38 -22 2 -15 10 -23 23 -23 13 0 21 8 23 23 3 17 10 22 32 22 16 0 33 7 38
16 8 14 10 14 21 0 16 -19 41 -21 41 -3 0 6 -25 41 -55 77 -30 35 -55 68 -55
72 0 4 23 8 51 8 43 0 50 3 47 18 -2 13 -15 18 -60 20 -50 3 -57 6 -62 27 -6
24 -25 33 -39 18z m-7 -178 c0 -43 -1 -45 -30 -45 -16 0 -30 2 -30 5 0 7 52
85 56 85 2 0 4 -20 4 -45z m110 -37 c0 -5 -13 -8 -30 -8 -29 0 -30 1 -30 47
l0 47 30 -40 c16 -21 30 -42 30 -46z"/>
<path d="M2330 930 c0 -23 -5 -30 -19 -30 -13 0 -21 8 -23 23 -4 30 -42 30
-46 1 -2 -12 -12 -24 -24 -27 -11 -3 -18 -12 -16 -19 4 -10 39 -13 149 -13
121 0 144 2 144 15 0 11 -15 16 -63 18 -74 3 -75 22 -1 22 27 0 49 5 49 10 0
14 -12 17 -87 24 l-63 6 0 -30z"/>
<path d="M2576 941 c-35 -7 -47 -31 -17 -31 28 0 28 -36 1 -43 -26 -7 -26 -27
0 -34 19 -5 19 -6 -4 -52 -22 -44 -24 -71 -6 -71 5 0 12 10 17 23 6 18 9 12
13 -28 4 -35 9 -50 20 -50 11 0 16 16 21 65 3 36 6 59 7 53 3 -17 32 -17 32 0
0 7 -6 22 -14 32 -12 17 -12 21 2 31 17 12 9 34 -14 34 -22 0 -17 41 6 47 11
3 20 12 20 19 0 15 -32 17 -84 5z"/>
<path d="M2778 853 l-3 -97 -60 -11 c-42 -7 -60 -14 -60 -25 0 -16 16 -18 82
-7 41 7 42 7 45 -25 2 -22 9 -34 21 -36 14 -3 17 4 17 37 0 30 4 41 15 41 8 0
15 7 15 15 0 9 -7 18 -15 21 -12 5 -15 25 -15 95 0 82 -2 89 -20 89 -18 0 -20
-8 -22 -97z"/>
<path d="M2700 918 c1 -17 35 -58 49 -58 22 0 22 23 0 46 -24 26 -49 32 -49
12z"/>
<path d="M1510 835 c0 -11 11 -15 40 -15 22 0 40 -4 40 -9 0 -5 -20 -26 -45
-47 -33 -26 -43 -40 -35 -48 7 -7 16 -7 30 2 28 17 30 16 30 -22 0 -38 15 -55
33 -37 15 15 144 15 149 -1 3 -7 12 -9 22 -5 14 6 16 17 14 69 l-3 63 -78 3
c-68 2 -77 5 -67 17 9 11 35 15 92 15 59 0 79 3 76 13 -4 9 -45 13 -151 15
-126 2 -147 0 -147 -13z m240 -110 c0 -24 -2 -25 -70 -25 -68 0 -70 1 -70 25
0 24 2 25 70 25 68 0 70 -1 70 -25z"/>
<path d="M2210 753 l0 -98 140 0 140 0 0 98 c0 88 -2 98 -17 95 -15 -3 -18
-16 -21 -81 l-3 -77 -99 0 -99 0 -3 77 c-3 65 -6 78 -20 81 -16 3 -18 -7 -18
-95z"/>
<path d="M2270 836 c0 -8 5 -18 11 -22 8 -5 6 -10 -5 -16 -23 -13 -20 -28 6
-28 l21 0 -21 -23 c-12 -13 -22 -26 -22 -30 0 -13 27 -7 40 8 17 21 27 19 33
-6 7 -27 31 -20 35 10 l4 23 23 -22 c32 -30 54 -16 24 16 l-22 24 21 0 c25 0
30 18 7 26 -12 5 -13 10 -4 20 11 14 5 34 -11 34 -5 0 -12 -11 -16 -25 -3 -14
-10 -25 -15 -25 -5 0 -9 11 -9 25 0 18 -5 25 -20 25 -15 0 -20 -7 -20 -25 0
-16 -6 -25 -16 -25 -8 0 -12 5 -9 10 7 12 -12 40 -26 40 -5 0 -9 -6 -9 -14z"/>
<path d="M2680 835 c0 -20 49 -67 61 -59 15 9 10 30 -14 52 -27 26 -47 28 -47
7z"/>
<path d="M1200 670 c0 -8 5 -22 10 -30 9 -13 10 -13 10 0 0 8 -5 22 -10 30 -9
13 -10 13 -10 0z"/>
<path d="M1291 593 c11 -18 11 -27 2 -42 -10 -16 -5 -42 32 -152 48 -143 50
-149 36 -149 -5 0 -15 16 -21 36 -7 19 -14 33 -17 30 -9 -9 21 -76 34 -76 26
0 23 27 -22 160 -30 89 -42 137 -35 144 15 15 12 42 -7 57 -15 13 -15 12 -2
-8z"/>
<path d="M1260 490 c0 -8 5 -22 10 -30 9 -13 10 -13 10 0 0 8 -5 22 -10 30 -9
13 -10 13 -10 0z"/>
<path d="M2330 450 c0 -23 -5 -30 -19 -30 -13 0 -21 8 -23 23 -4 30 -42 30
-46 1 -2 -12 -12 -24 -24 -27 -11 -3 -18 -12 -16 -19 4 -10 39 -13 149 -13
121 0 144 2 144 15 0 11 -15 16 -63 18 -74 3 -75 22 -1 22 27 0 49 5 49 10 0
14 -12 17 -87 24 l-63 6 0 -30z"/>
<path d="M1516 453 c-22 -78 -12 -115 18 -71 l16 22 0 -26 c0 -20 -6 -27 -22
-30 -29 -4 -35 -28 -9 -35 25 -6 26 -24 5 -69 -9 -19 -13 -42 -9 -51 6 -16 8
-16 25 5 10 12 21 28 24 35 3 8 8 7 16 -6 6 -9 15 -15 20 -12 4 3 11 -7 14
-21 10 -40 31 -22 34 29 l3 47 60 0 59 0 -1 -32 -1 -33 -10 28 c-9 25 -14 28
-47 25 -33 -3 -36 -6 -39 -36 -3 -33 -3 -34 28 -27 24 5 34 3 44 -11 9 -12 20
-15 40 -10 26 6 27 9 24 64 l-3 57 -93 3 c-88 3 -93 2 -101 -20 l-8 -22 -13
23 c-11 21 -10 25 6 34 25 14 64 18 64 6 0 -13 97 -12 105 1 4 6 15 8 26 5 28
-9 25 26 -3 44 l-23 15 23 5 c38 10 25 26 -25 32 l-48 5 43 8 c27 6 42 14 42
24 0 12 -10 14 -52 8 -29 -3 -68 -6 -85 -6 -41 0 -45 -27 -5 -33 22 -3 20 -4
-10 -6 -20 0 -40 4 -43 9 -3 6 -17 10 -31 10 -15 0 -24 6 -24 15 0 21 -28 19
-34 -2z m116 -63 c23 0 23 -9 1 -26 -30 -22 -43 -16 -43 18 0 25 3 29 12 20 7
-7 20 -12 30 -12z m98 -10 c0 -5 -7 -10 -15 -10 -8 0 -15 5 -15 10 0 6 7 10
15 10 8 0 15 -4 15 -10z m10 -40 c0 -5 -11 -10 -25 -10 -14 0 -25 5 -25 10 0
6 11 10 25 10 14 0 25 -4 25 -10z m-15 -110 c3 -5 -1 -10 -9 -10 -9 0 -16 5
-16 10 0 6 4 10 9 10 6 0 13 -4 16 -10z"/>
<path d="M2576 461 c-35 -7 -47 -31 -17 -31 28 0 28 -36 1 -43 -26 -7 -26 -27
0 -34 19 -5 19 -6 -4 -52 -22 -44 -24 -71 -6 -71 5 0 12 10 17 23 6 18 9 12
13 -28 4 -35 9 -50 20 -50 11 0 16 16 21 65 3 36 6 59 7 53 3 -17 32 -17 32 0
0 7 -6 22 -14 32 -12 17 -12 21 2 31 17 12 9 34 -14 34 -22 0 -17 41 6 47 11
3 20 12 20 19 0 15 -32 17 -84 5z"/>
<path d="M2778 373 l-3 -97 -60 -11 c-42 -7 -60 -14 -60 -25 0 -16 16 -18 82
-7 41 7 42 7 45 -25 2 -22 9 -34 21 -36 14 -3 17 4 17 37 0 30 4 41 15 41 8 0
15 7 15 15 0 9 -7 18 -15 21 -12 5 -15 25 -15 95 0 82 -2 89 -20 89 -18 0 -20
-8 -22 -97z"/>
<path d="M1867 454 c-15 -15 8 -24 64 -24 l59 0 0 -105 c0 -105 0 -105 -25
-105 -23 0 -24 3 -27 68 -2 52 -6 67 -18 67 -12 0 -16 -15 -18 -67 -3 -60 -5
-68 -22 -68 -13 0 -20 -7 -20 -20 0 -20 5 -20 143 -18 118 3 142 5 142 18 0
11 -14 16 -58 18 l-58 3 3 47 3 47 48 3 c63 4 58 26 -6 30 l-47 3 0 39 0 39
55 3 c30 2 55 8 55 13 0 11 -262 20 -273 9z"/>
<path d="M2943 390 c-38 -80 -38 -80 -15 -80 9 0 30 20 46 45 28 46 29 46 80
43 61 -4 68 -18 37 -81 -23 -48 -47 -65 -111 -82 -30 -7 -46 -17 -49 -30 -3
-16 2 -17 45 -11 103 14 169 83 176 186 l3 45 -72 3 c-56 2 -73 6 -73 17 0 8
-8 15 -17 15 -12 0 -29 -23 -50 -70z"/>
<path d="M3277 453 c-4 -3 -7 -37 -7 -75 0 -66 1 -69 23 -66 20 3 22 9 25 67
2 45 -1 67 -10 72 -16 11 -23 11 -31 2z"/>
<path d="M3452 448 c-7 -7 -12 -39 -12 -75 0 -97 -19 -123 -108 -148 -35 -10
-24 -41 13 -37 95 10 147 82 143 196 -3 69 -13 87 -36 64z"/>
<path d="M4323 390 c-38 -80 -38 -80 -15 -80 9 0 30 20 46 45 28 46 29 46 80
43 61 -4 68 -18 37 -81 -23 -48 -47 -65 -111 -82 -30 -7 -46 -17 -49 -30 -3
-16 2 -17 45 -11 103 14 169 83 176 186 l3 45 -72 3 c-56 2 -73 6 -73 17 0 8
-8 15 -17 15 -12 0 -29 -23 -50 -70z"/>
<path d="M2700 438 c1 -17 35 -58 49 -58 22 0 22 23 0 46 -24 26 -49 32 -49
12z"/>
<path d="M1280 430 c0 -8 5 -22 10 -30 9 -13 10 -13 10 0 0 8 -5 22 -10 30 -9
13 -10 13 -10 0z"/>
<path d="M3615 429 c-15 -23 15 -30 116 -27 84 2 104 6 104 18 0 12 -20 16
-107 18 -71 2 -109 -1 -113 -9z"/>
<path d="M4043 353 c7 -44 22 -62 38 -46 16 16 -7 83 -28 83 -12 0 -14 -8 -10
-37z"/>
<path d="M4140 361 c0 -66 -38 -114 -103 -132 -39 -10 -46 -32 -11 -37 31 -4
107 40 126 74 10 17 21 52 24 77 6 43 5 47 -15 47 -17 0 -21 -6 -21 -29z"/>
<path d="M1300 370 c0 -8 5 -22 10 -30 9 -13 10 -13 10 0 0 8 -5 22 -10 30 -9
13 -10 13 -10 0z"/>
<path d="M3964 363 c2 -10 7 -28 11 -40 7 -27 35 -31 35 -5 0 38 -13 62 -32
62 -14 0 -18 -5 -14 -17z"/>
<path d="M2210 273 l0 -98 140 0 140 0 0 98 c0 88 -2 98 -17 95 -15 -3 -18
-16 -21 -81 l-3 -77 -99 0 -99 0 -3 77 c-3 65 -6 78 -20 81 -16 3 -18 -7 -18
-95z"/>
<path d="M2270 356 c0 -8 5 -18 11 -22 8 -5 6 -10 -5 -16 -23 -13 -20 -28 6
-28 l21 0 -21 -23 c-12 -13 -22 -26 -22 -30 0 -13 27 -7 40 8 17 21 27 19 33
-6 7 -27 31 -20 35 10 l4 23 23 -22 c32 -30 54 -16 24 16 l-22 24 21 0 c25 0
30 18 7 26 -12 5 -13 10 -4 20 11 14 5 34 -11 34 -5 0 -12 -11 -16 -25 -3 -14
-10 -25 -15 -25 -5 0 -9 11 -9 25 0 18 -5 25 -20 25 -15 0 -20 -7 -20 -25 0
-16 -6 -25 -16 -25 -8 0 -12 5 -9 10 7 12 -12 40 -26 40 -5 0 -9 -6 -9 -14z"/>
<path d="M2680 355 c0 -20 49 -67 61 -59 15 9 10 30 -14 52 -27 26 -47 28 -47
7z"/>
<path d="M3592 223 c3 -16 17 -18 133 -18 116 0 130 2 133 18 3 15 -8 17 -133
17 -125 0 -136 -2 -133 -17z"/>
</g>
</svg>
